<?xml version="1.0" encoding="UTF-8"?>
<!DOCTYPE svg PUBLIC "-//W3C//DTD SVG 1.1//EN" "http://www.w3.org/Graphics/SVG/1.1/DTD/svg11.dtd">
<!-- Creator: CorelDRAW -->
<svg xmlns="http://www.w3.org/2000/svg" xml:space="preserve" width="155.076mm" height="13.1296mm" version="1.1" style="shape-rendering:geometricPrecision; text-rendering:geometricPrecision; image-rendering:optimizeQuality; fill-rule:evenodd; clip-rule:evenodd"
viewBox="0 0 6769.91 573.18"
 xmlns:xlink="http://www.w3.org/1999/xlink"
 xmlns:xodm="http://www.corel.com/coreldraw/odm/2003">
 <defs>
  <style type="text/css">
   <![CDATA[
    .fil2 {fill:#3BD66F}
    .fil0 {fill:#FEFEFE;fill-rule:nonzero}
    .fil1 {fill:#3BD66F;fill-rule:nonzero}
   ]]>
  </style>
 </defs>
 <g id="Camada_x0020_1">
  <metadata id="CorelCorpID_0Corel-Layer"/>
  <g id="_1600874943264">
   <g>
    <path class="fil0" d="M587.59 573.18l484.71 0c83.19,0 144.44,-48.45 144.44,-124.33l0 -71.3c0,-73.11 -44.78,-112.43 -112.39,-122.49 -0.04,-0 -0.07,-0.01 -0.11,-0.02l-377.39 -46.6c-0.07,-0.01 -0.12,-0.01 -0.19,-0.03 -21.88,-3.68 -31,-19.2 -31,-32.89l0 -24.68c0,-19.2 12.8,-35.65 40.22,-35.65l441.74 0c2.41,0 4.37,-1.96 4.37,-4.37l0 -106.45c0,-2.41 -1.96,-4.37 -4.37,-4.37l-467.34 0c-88.67,0 -142.61,45.71 -142.61,127.98l0 71.3c0,75.88 48.45,111.53 121.58,121.58l369.25 46.61c0.04,0 0.07,0.01 0.11,0.02 18.25,2.76 29.21,15.55 29.21,31.07l0 21.94c0,21.94 -12.8,36.57 -41.14,36.57l-459.11 0c-2.41,0 -4.37,1.96 -4.37,4.37l0 107.37c0,2.41 1.96,4.37 4.37,4.37zm741.38 0l120.16 0c2.41,0 4.37,-1.96 4.37,-4.37l0 -564.45c0,-2.41 -1.96,-4.37 -4.37,-4.37l-120.16 0c-2.41,0 -4.37,1.96 -4.37,4.37l0 564.45c0,2.41 1.96,4.37 4.37,4.37zm251.39 0l484.71 0c83.19,0 144.44,-48.45 144.44,-124.33l0 -71.3c0,-73.11 -44.78,-112.43 -112.39,-122.49 -0.04,-0 -0.07,-0.01 -0.11,-0.02l-377.39 -46.6c-0.07,-0.01 -0.12,-0.01 -0.19,-0.03 -21.88,-3.68 -31,-19.2 -31,-32.89l0 -24.68c0,-19.2 12.8,-35.65 40.22,-35.65l441.74 0c2.41,0 4.37,-1.96 4.37,-4.37l0 -106.45c0,-2.41 -1.96,-4.37 -4.37,-4.37l-467.34 0c-88.67,0 -142.61,45.71 -142.61,127.98l0 71.3c0,75.88 48.45,111.53 121.58,121.58l369.25 46.61c0.04,0 0.07,0.01 0.11,0.02 18.25,2.76 29.21,15.55 29.21,31.07l0 21.94c0,21.94 -12.8,36.57 -41.14,36.57l-459.11 0c-2.41,0 -4.37,1.96 -4.37,4.37l0 107.37c0,2.41 1.96,4.37 4.37,4.37zm917.81 0l121.08 0c2.41,0 4.37,-1.96 4.37,-4.37l0 -449.26c0,-2.41 1.96,-4.37 4.37,-4.37l246.32 0c2.41,0 4.37,-1.96 4.37,-4.37l0 -106.45c0,-2.41 -1.96,-4.37 -4.37,-4.37l-628.44 0c-2.41,0 -4.37,1.96 -4.37,4.37l0 106.45c0,2.41 1.96,4.37 4.37,4.37l243.58 0c2.41,0 4.37,1.96 4.37,4.37l0 449.26c0,2.41 1.96,4.37 4.37,4.37zm476.28 0l602.84 0c2.41,0 4.37,-1.96 4.37,-4.37l0 -107.37c0,-2.41 -1.96,-4.37 -4.37,-4.37l-473.03 0c-2.41,0 -4.37,-1.96 -4.37,-4.37l0 -108.28c0,-2.41 1.96,-4.37 4.37,-4.37l420.01 0c2.41,0 4.37,-1.96 4.37,-4.37l0 -107.37c0,-2.41 -1.96,-4.37 -4.37,-4.37l-420.01 0c-2.41,0 -4.37,-1.96 -4.37,-4.37l0 -100.05c0,-2.41 1.96,-4.37 4.37,-4.37l473.03 0c2.41,0 4.37,-1.96 4.37,-4.37l0 -106.45c0,-2.41 -1.96,-4.37 -4.37,-4.37l-602.84 0c-2.41,0 -4.37,1.96 -4.37,4.37l0 564.45c0,2.41 1.96,4.37 4.37,4.37zm1371.96 -571.67l-267.82 309.16c-0.86,0.99 -1.99,1.51 -3.3,1.51 -1.31,0 -2.44,-0.51 -3.3,-1.5l-268.73 -309.17c-0.86,-0.99 -1.99,-1.5 -3.3,-1.5l-122.54 0c-2.41,0 -4.37,1.96 -4.37,4.37l0 564.45c0,2.41 1.96,4.37 4.37,4.37l117.42 0c2.41,0 4.37,-1.96 4.37,-4.37l0 -371.56c0,-1.86 1.1,-3.44 2.84,-4.09 1.74,-0.65 3.61,-0.17 4.82,1.23l228.71 263.02c0.86,0.99 1.99,1.5 3.3,1.5l71.89 0c1.31,0 2.44,-0.52 3.3,-1.51l226.88 -262.06c1.22,-1.41 3.08,-1.88 4.82,-1.23 1.74,0.65 2.84,2.23 2.84,4.09l0 370.61c0,2.41 1.96,4.37 4.37,4.37l116.51 0c2.41,0 4.37,-1.96 4.37,-4.37l0 -564.45c0,-2.41 -1.96,-4.37 -4.37,-4.37l-119.79 0c-1.31,0 -2.44,0.52 -3.3,1.51zm804.73 571.67l135.43 0c1.58,0 2.94,-0.77 3.75,-2.12 0.81,-1.36 0.85,-2.92 0.1,-4.31l-303.38 -564.45c-0.78,-1.45 -2.2,-2.3 -3.85,-2.3l-120.93 0c-1.65,0 -3.06,0.85 -3.85,2.3l-303.38 564.45c-0.75,1.39 -0.71,2.95 0.1,4.31 0.81,1.35 2.17,2.12 3.75,2.12l135.41 0c1.66,0 3.09,-0.86 3.86,-2.34l55.14 -105.03c0.77,-1.47 2.2,-2.34 3.86,-2.34l330.24 0c1.65,0 3.07,0.85 3.85,2.31l56.04 105.08c0.78,1.46 2.2,2.31 3.85,2.31zm-331.96 -232.22l99.67 -187.42c0.78,-1.47 2.2,-2.32 3.86,-2.31 1.66,0 3.08,0.86 3.85,2.33l98.82 187.42c0.73,1.39 0.69,2.94 -0.13,4.29 -0.81,1.34 -2.17,2.11 -3.74,2.11l-198.5 0c-1.58,0 -2.93,-0.77 -3.74,-2.12 -0.81,-1.35 -0.85,-2.91 -0.11,-4.3zm535.73 232.22l484.71 0c83.19,0 144.44,-48.45 144.44,-124.33l0 -71.3c0,-73.11 -44.78,-112.43 -112.39,-122.49 -0.04,-0 -0.07,-0.01 -0.11,-0.02l-377.39 -46.6c-0.07,-0.01 -0.12,-0.01 -0.19,-0.03 -21.88,-3.68 -31,-19.2 -31,-32.89l0 -24.68c0,-19.2 12.8,-35.65 40.22,-35.65l329.12 0c1.2,0 2.24,-0.43 3.09,-1.28l106.45 -106.45c1.27,-1.27 1.64,-3.09 0.95,-4.76 -0.69,-1.66 -2.23,-2.69 -4.03,-2.69l-461.17 0c-88.67,0 -142.61,45.71 -142.61,127.98l0 71.3c0,75.88 48.45,111.53 121.58,121.58l369.25 46.61c0.04,0 0.07,0.01 0.11,0.02 18.25,2.76 29.21,15.55 29.21,31.07l0 21.94c0,21.94 -12.8,36.57 -41.14,36.57l-459.11 0c-2.41,0 -4.37,1.96 -4.37,4.37l0 107.37c0,2.41 1.96,4.37 4.37,4.37z"/>
    <path class="fil1" d="M6645.38 573.18l120.16 0c2.41,0 4.37,-1.96 4.37,-4.37l0 -564.45c0,-2.41 -1.96,-4.37 -4.37,-4.37l-120.16 0c-2.41,0 -4.37,1.96 -4.37,4.37l0 564.45c0,2.41 1.96,4.37 4.37,4.37z"/>
    <path class="fil1" d="M6192.83 573.18l121.08 0c2.41,0 4.37,-1.96 4.37,-4.37l0 -449.26c0,-2.41 1.96,-4.37 4.37,-4.37l246.32 0c2.41,0 4.37,-1.96 4.37,-4.37l0 -106.45c0,-2.41 -1.96,-4.37 -4.37,-4.37l-515.81 0c-1.2,0 -2.24,0.43 -3.09,1.28l-106.45 106.45c-1.27,1.27 -1.64,3.09 -0.95,4.76 0.69,1.66 2.23,2.69 4.03,2.69l237.41 0c2.41,0 4.37,1.96 4.37,4.37l0 449.26c0,2.41 1.96,4.37 4.37,4.37z"/>
   </g>
   <path class="fil2" d="M40.13 0l368.23 0c22.02,0 39.99,17.96 39.99,39.99l0 493.19c0,22.03 -17.96,39.99 -39.99,39.99l-321.52 0c-16.29,0 -30.22,-9.14 -36.69,-24.09 -6.48,-14.95 -3.63,-31.36 7.51,-43.25 7.97,-8.5 15.03,-17.85 21.07,-28.27 18.51,-31.93 1.03,-110.52 1.59,-115.04l-1.12 -2.46c-0.89,-1.94 -1.51,-3.66 -2.1,-5.71 -2,-7.06 -4.82,-18.17 -7.6,-23.72 -0.89,-1.79 -1.55,-3.37 -2.19,-5.28 -0.31,-0.93 -0.72,-1.4 -2.27,-2.67 -0.07,-0.97 -0.32,-2.14 -0.72,-3.44 -4.18,-13.55 -1.33,-27.18 7.93,-37.91 9.26,-10.73 22.33,-15.56 36.34,-13.41 5.99,0.92 10.29,1.3 11.97,0.86 1.26,0.73 -0.64,0.1 1.47,0.8 2.97,0.99 5.6,1.55 8.72,1.86 36.81,3.61 67.39,8.05 102.01,-5.3 12.96,-5 28.74,-14.63 35.54,-22.23 6.95,-7.78 5.02,-4.06 13.86,-15.03 2.6,-3.23 10.17,-12.89 10.98,-17.23 -58.83,13.28 -109.84,14.54 -164.1,-13.94 -7.25,-3.81 -33.09,-20.44 -37.15,-27.77 9.91,0.17 30.79,-0.75 39.12,-4.31 -4.44,-3.89 -28.15,-8.69 -71.08,-46.58 -3.05,-2.69 -3.51,-3.93 -6.26,-7.03 -4.15,-4.66 -8.92,-7.71 -13.14,-12.39l-23.2 -25.45c-0.7,-0.77 -1.32,-1.4 -2.07,-2.11 -2.26,-2.13 -4.18,-4.44 -6.1,-6.81 -9.99,-12.25 -11.91,-28.15 -5.13,-42.43 6.78,-14.28 20.32,-22.84 36.12,-22.84z"/>
  </g>
 </g>
</svg>
