<svg class="jss75" focusable="false" viewBox="0 0 3370 820" aria-hidden="true" role="presentation" maincolor="#424242" style="width: 29vw; height: 13vh; filter: drop-shadow(rgb(0, 0, 0) 1px 1px 1px);"><g id="layer101" fill="#009976" stroke="none"><path d="M2214 795 c-10 -24 3 -44 31 -50 14 -3 36 -7 50 -10 36 -8 95 -63 95 -89 0 -13 -9 -31 -20 -41 -18 -16 -24 -17 -59 -5 -84 27 -95 -17 -16 -60 48 -26 99 -83 92 -104 -9 -28 -95 -33 -136 -6 -15 9 -49 211 -50 296 -1 43 -15 64 -43 64 -32 0 -39 -32 -24 -111 8 -41 17 -105 21 -142 7 -60 5 -70 -11 -82 -15 -11 -17 -18 -8 -32 26 -43 212 -79 274 -53 63 26 68 85 11 141 -33 34 -36 39 -20 44 30 10 59 55 59 92 0 42 -65 117 -125 144 -50 23 -113 25 -121 4z"></path><path d="M229 785 c-108 -35 -177 -109 -195 -207 l-6 -38 96 0 c90 0 96 1 96 20 0 37 28 77 61 89 57 20 117 14 144 -14 56 -56 21 -110 -100 -154 -109 -39 -155 -63 -201 -103 -46 -40 -64 -83 -64 -148 0 -83 42 -139 135 -182 42 -19 67 -23 151 -23 92 0 105 3 159 30 72 37 115 92 122 159 l6 46 -92 0 c-85 0 -91 -1 -91 -21 0 -11 -13 -34 -29 -50 -61 -60 -181 -26 -181 51 0 28 54 63 163 105 112 42 172 84 205 140 19 34 22 52 20 112 -3 62 -7 76 -33 108 -51 63 -111 88 -223 92 -67 2 -111 -2 -143 -12z"></path><path d="M955 791 c-94 -24 -165 -84 -211 -177 -28 -57 -29 -64 -29 -204 0 -136 2 -149 27 -202 52 -112 146 -176 274 -185 99 -8 170 15 239 78 79 73 108 145 113 283 8 202 -53 325 -193 391 -43 21 -167 30 -220 16z m164 -165 c46 -41 61 -91 61 -214 0 -120 -11 -166 -52 -209 -53 -57 -157 -45 -198 21 -46 75 -48 269 -4 361 33 71 136 92 193 41z"></path><path d="M1639 785 c-108 -35 -177 -109 -195 -207 l-6 -38 96 0 c90 0 96 1 96 20 0 37 28 77 61 89 57 20 117 14 144 -14 56 -56 21 -110 -100 -154 -109 -39 -155 -63 -201 -103 -46 -40 -64 -83 -64 -148 0 -83 42 -139 135 -182 42 -19 67 -23 151 -23 92 0 105 3 159 30 72 37 115 92 122 159 l6 46 -92 0 c-85 0 -91 -1 -91 -21 0 -11 -13 -34 -29 -50 -61 -60 -181 -26 -181 51 0 28 54 63 163 105 112 42 172 84 205 140 19 34 22 52 20 112 -3 62 -7 76 -33 108 -51 63 -111 88 -223 92 -67 2 -111 -2 -143 -12z"></path><path d="M3270 771 c-5 -11 -10 -31 -10 -45 0 -34 -7 -33 -50 9 -45 44 -101 57 -130 30 -43 -39 -16 -145 56 -225 66 -73 117 -87 167 -46 l28 23 -10 77 c-12 83 -7 121 17 148 12 14 12 20 2 33 -18 21 -57 19 -70 -4z m-69 -100 c49 -51 72 -112 51 -133 -24 -24 -102 59 -122 130 -18 68 7 69 71 3z"></path><path d="M2539 751 c-24 -25 -29 -38 -29 -78 0 -134 142 -261 215 -193 14 13 25 32 25 42 0 52 -63 119 -130 139 -47 14 -55 45 -16 55 33 8 61 -2 102 -38 61 -54 81 -17 25 46 -57 62 -144 75 -192 27z m108 -160 c40 -29 55 -81 23 -81 -18 0 -69 52 -79 81 -10 28 -9 30 12 23 12 -4 32 -14 44 -23z"></path><path d="M2853 765 c-28 -20 -33 -56 -17 -134 8 -36 14 -67 14 -68 0 -2 -11 -3 -24 -3 -28 0 -51 -24 -42 -45 3 -10 19 -15 45 -15 39 0 39 -1 51 -50 14 -58 34 -79 58 -63 18 11 19 27 7 81 l-8 34 57 -7 c57 -7 58 -7 54 16 -2 20 -13 26 -66 38 -68 16 -71 21 -88 123 -9 51 14 59 72 28 24 -14 46 -21 50 -18 13 13 -9 49 -44 73 -41 28 -87 32 -119 10z"></path></g><g id="layer102" fill="#424242" stroke="none"><path d="M229 785 c-108 -35 -177 -109 -195 -207 l-6 -38 96 0 c90 0 96 1 96 20 0 37 28 77 61 89 57 20 117 14 144 -14 56 -56 21 -110 -100 -154 -109 -39 -155 -63 -201 -103 -46 -40 -64 -83 -64 -148 0 -83 42 -139 135 -182 42 -19 67 -23 151 -23 92 0 105 3 159 30 72 37 115 92 122 159 l6 46 -92 0 c-85 0 -91 -1 -91 -21 0 -11 -13 -34 -29 -50 -61 -60 -181 -26 -181 51 0 28 54 63 163 105 112 42 172 84 205 140 19 34 22 52 20 112 -3 62 -7 76 -33 108 -51 63 -111 88 -223 92 -67 2 -111 -2 -143 -12z"></path><path d="M955 791 c-94 -24 -165 -84 -211 -177 -28 -57 -29 -64 -29 -204 0 -136 2 -149 27 -202 52 -112 146 -176 274 -185 99 -8 170 15 239 78 79 73 108 145 113 283 8 202 -53 325 -193 391 -43 21 -167 30 -220 16z m164 -165 c46 -41 61 -91 61 -214 0 -120 -11 -166 -52 -209 -53 -57 -157 -45 -198 21 -46 75 -48 269 -4 361 33 71 136 92 193 41z"></path><path d="M1639 785 c-108 -35 -177 -109 -195 -207 l-6 -38 96 0 c90 0 96 1 96 20 0 37 28 77 61 89 57 20 117 14 144 -14 56 -56 21 -110 -100 -154 -109 -39 -155 -63 -201 -103 -46 -40 -64 -83 -64 -148 0 -83 42 -139 135 -182 42 -19 67 -23 151 -23 92 0 105 3 159 30 72 37 115 92 122 159 l6 46 -92 0 c-85 0 -91 -1 -91 -21 0 -11 -13 -34 -29 -50 -61 -60 -181 -26 -181 51 0 28 54 63 163 105 112 42 172 84 205 140 19 34 22 52 20 112 -3 62 -7 76 -33 108 -51 63 -111 88 -223 92 -67 2 -111 -2 -143 -12z"></path></g></svg>