<?xml version="1.0" encoding="UTF-8"?>
<!DOCTYPE svg PUBLIC "-//W3C//DTD SVG 1.1//EN" "http://www.w3.org/Graphics/SVG/1.1/DTD/svg11.dtd">
<!-- Creator: CorelDRAW -->
<svg xmlns="http://www.w3.org/2000/svg" xml:space="preserve" width="321.9mm" height="40.2918mm" version="1.1" style="shape-rendering:geometricPrecision; text-rendering:geometricPrecision; image-rendering:optimizeQuality; fill-rule:evenodd; clip-rule:evenodd"
viewBox="0 0 32174.77 4027.28"
 xmlns:xlink="http://www.w3.org/1999/xlink"
 xmlns:xodm="http://www.corel.com/coreldraw/odm/2003">
 <defs>
  <style type="text/css">
   <![CDATA[
    .fil1 {fill:#FEFEFE;fill-rule:nonzero}
    .fil0 {fill:#3BD66F;fill-rule:nonzero}
   ]]>
  </style>
 </defs>
 <g id="Camada_x0020_1">
  <metadata id="CorelCorpID_0Corel-Layer"/>
  <g id="_2304670507056">
   <g>
    <g>
     <path class="fil0" d="M2760.36 0c-452.94,0 -828.49,328.39 -903.72,759.81 -15.49,59.51 -14.15,424.82 -14.27,425.32 0.12,65.55 40.77,477.57 -353.47,871.66 -394.08,394.24 -837.01,323.14 -837.01,323.14l0 1.43c-168.19,-5.15 -338.09,54.91 -466.67,183.3 -247.03,247 -246.83,647.67 0,894.49 246.94,246.96 647.39,247.1 894.5,0 128.37,-128.51 188.71,-298.21 183.36,-466.42l1.36 -0.39c0,0 -71.12,-442.79 323.05,-836.87 394.11,-394.22 798.55,-347.37 864.24,-347.17 0.41,-0.2 260.24,28.77 308.64,28.5 507.32,-2.83 918.47,-411.23 918.47,-918.41 0,-507.18 -411.15,-918.39 -918.47,-918.39z"/>
     <path class="fil0" d="M4594.18 3130.47c-95.81,-270.86 -371.75,-426.06 -645.73,-379.81 -38.92,3.26 -257.17,81.47 -257.37,81.47 -39.27,13.93 -277.1,125.47 -596.36,-26.97 -319.14,-152.35 -370.48,-432.28 -370.48,-432.28l-0.81 0.27c-32.43,-101.71 -104.35,-190.61 -208.42,-240.33 -199.96,-95.59 -439.59,-10.68 -535.02,189.34 -95.38,200.04 -10.69,439.45 189.34,535.08 104.15,49.57 218.31,49.71 317.78,10.96l0.54 0.67c0,0 249.87,-136.24 568.93,16.19 319.28,152.29 376.91,404.11 390.57,443.46 0.22,0.2 37.94,161.76 48.3,190.75 109.15,302.68 440.33,462.21 743.77,354.87 303.36,-107.31 462.35,-440.33 354.95,-743.69z"/>
     <path class="fil0" d="M2397.48 3626c0,221.56 -179.65,401.28 -401.27,401.28 -221.64,0 -401.28,-179.73 -401.28,-401.28 0,-221.69 179.65,-401.34 401.28,-401.34 221.63,0 401.27,179.66 401.27,401.34z"/>
    </g>
   </g>
   <g>
    <path class="fil1" d="M5927.04 3202.49l1982.63 0c367.85,0 633.3,-219.95 633.3,-546.07l0 -299.59c0,-341.3 -200.99,-508.15 -496.78,-542.28l-1513.09 -166.85c-68.26,-7.59 -79.63,-60.68 -79.63,-83.43l0 -53.09c0,-60.67 41.71,-102.38 113.77,-102.38l1781.65 0c27.53,0 49.98,-22.45 49.98,-49.98l0 -484.05c0,-27.53 -22.45,-49.98 -49.98,-49.98l-1906.8 0c-401.97,0 -633.29,193.41 -633.29,557.46l0 307.16c0,345.09 212.36,489.2 534.7,530.91l1478.95 159.27c45.51,7.58 72.06,45.5 72.06,87.22l0 37.92c0,60.67 -34.13,109.97 -106.18,109.97l-1861.29 0c-27.53,0 -49.98,22.45 -49.98,49.98l0 487.84c0,27.53 22.45,49.98 49.98,49.98zm3064.09 0l548.51 0c27.53,0 49.98,-22.45 49.98,-49.98l0 -2277.75c0,-27.53 -22.45,-49.98 -49.98,-49.98l-548.51 0c-27.53,0 -49.98,22.45 -49.98,49.98l0 2277.75c0,27.53 22.45,49.98 49.98,49.98zm1114.9 0l1982.63 0c367.85,0 633.3,-219.95 633.3,-546.07l0 -299.59c0,-341.3 -200.99,-508.15 -496.78,-542.28l-1513.09 -166.85c-68.26,-7.59 -79.63,-60.68 -79.63,-83.43l0 -53.09c0,-60.67 41.71,-102.38 113.77,-102.38l1781.65 0c27.53,0 49.98,-22.45 49.98,-49.98l0 -484.05c0,-27.53 -22.45,-49.98 -49.98,-49.98l-1906.8 0c-401.97,0 -633.29,193.41 -633.29,557.46l0 307.16c0,345.09 212.36,489.2 534.7,530.91l1478.95 159.27c45.51,7.58 72.06,45.5 72.06,87.22l0 37.92c0,60.67 -34.13,109.97 -106.18,109.97l-1861.29 0c-27.53,0 -49.98,22.45 -49.98,49.98l0 487.84c0,27.53 22.45,49.98 49.98,49.98zm3746.68 0l552.31 0c27.53,0 49.98,-22.45 49.98,-49.98l0 -1693.75c0,-27.53 22.45,-49.98 49.98,-49.98l923.93 0c27.53,0 49.98,-22.45 49.98,-49.98l0 -484.05c0,-27.53 -22.45,-49.98 -49.98,-49.98l-2581.12 0c-27.53,0 -49.98,22.45 -49.98,49.98l0 484.05c0,27.53 22.45,49.98 49.98,49.98l904.97 0c27.53,0 49.98,22.45 49.98,49.98l0 1693.75c0,27.53 22.45,49.98 49.98,49.98zm2017.45 0l2478.74 0c27.53,0 49.98,-22.45 49.98,-49.98l0 -487.84c0,-27.53 -22.45,-49.98 -49.98,-49.98l-1826.49 0c-27.53,0 -49.98,-22.45 -49.98,-49.98l0 -222.38c0,-27.53 22.45,-49.98 49.98,-49.98l1602.74 0c27.53,0 49.98,-22.45 49.98,-49.98l0 -487.83c0,-27.53 -22.45,-49.98 -49.98,-49.98l-1602.74 0c-27.53,0 -49.98,-22.45 -49.98,-49.98l0 -195.84c0,-27.53 22.45,-49.98 49.98,-49.98l1826.49 0c27.53,0 49.98,-22.45 49.98,-49.98l0 -484.05c0,-27.53 -22.45,-49.98 -49.98,-49.98l-2478.74 0c-27.53,0 -49.98,22.45 -49.98,49.98l0 2277.75c0,27.53 22.45,49.98 49.98,49.98zm5577.88 -2360.83l-982.83 1112.43c-9.84,11.13 -22.64,16.9 -37.49,16.89 -14.86,-0.02 -27.66,-5.81 -37.47,-16.96l-979.11 -1112.29c-9.84,-11.16 -22.64,-16.95 -37.51,-16.95l-583.48 0c-27.53,0 -49.98,22.45 -49.98,49.98l0 2277.75c0,27.53 22.45,49.98 49.98,49.98l537.14 0c27.53,0 49.98,-22.45 49.98,-49.98l0 -1266.39c0,-21.19 12.48,-39.25 32.3,-46.75 19.83,-7.49 41.14,-2.2 55.15,13.7l773.61 877.43c9.83,11.14 22.62,16.92 37.48,16.92l311.14 0c14.98,0 27.87,-5.87 37.7,-17.17l762 -875.63c13.95,-16.03 35.31,-21.45 55.21,-14 19.9,7.45 32.46,25.56 32.46,46.81l0 1265.08c0,27.53 22.45,49.98 49.98,49.98l533.34 0c27.53,0 49.98,-22.45 49.98,-49.98l0 -2277.75c0,-27.53 -22.45,-49.98 -49.98,-49.98l-572.16 0c-14.84,0 -27.63,5.76 -37.45,16.88zm3438.95 2360.83l625.5 0c18.11,0 33.67,-8.85 42.94,-24.41 9.27,-15.56 9.63,-33.46 0.99,-49.39l-1235.14 -2277.75c-8.97,-16.54 -25.12,-26.16 -43.94,-26.16l-581.42 0c-18.79,0 -34.92,9.59 -43.9,26.1l-1238.78 2277.75c-8.67,15.92 -8.33,33.83 0.94,49.42 9.27,15.58 24.83,24.44 42.96,24.44l621.6 0c18.95,0 35.21,-9.77 44.12,-26.5l191.74 -360.35c8.91,-16.73 25.16,-26.5 44.12,-26.5l1248.28 0c18.95,0 35.21,9.77 44.12,26.5l191.74 360.35c8.91,16.73 25.16,26.5 44.12,26.5zm-1203.81 -1074.82l257.35 -477.52c8.97,-16.64 25.21,-26.32 44.11,-26.27 18.9,0.04 35.09,9.79 43.99,26.47l254.49 477.52c8.5,15.93 8.04,33.74 -1.25,49.23 -9.29,15.47 -24.8,24.26 -42.85,24.26l-511.85 0c-18.09,0 -33.63,-8.83 -42.91,-24.36 -9.28,-15.53 -9.67,-33.39 -1.08,-49.33zm2145.27 1074.82l1982.63 0c367.85,0 633.3,-219.95 633.3,-546.07l0 -299.59c0,-341.3 -200.99,-508.15 -496.78,-542.28l-1513.09 -166.85c-68.26,-7.59 -79.63,-60.68 -79.63,-83.43l0 -53.09c0,-60.67 41.71,-102.38 113.77,-102.38l1224.52 0c14.9,0 27.73,-5.81 37.56,-17l425.02 -484.05c13.24,-15.08 16.25,-35.29 7.98,-53.58 -8.29,-18.29 -25.45,-29.37 -45.53,-29.37l-1774.7 0c-401.97,0 -633.29,193.41 -633.29,557.46l0 307.16c0,345.09 212.36,489.2 534.7,530.91l1478.95 159.27c45.51,7.58 72.06,45.5 72.06,87.22l0 37.92c0,60.67 -34.13,109.97 -106.18,109.97l-1861.29 0c-27.53,0 -49.98,22.45 -49.98,49.98l0 487.84c0,27.53 22.45,49.98 49.98,49.98z"/>
    <path class="fil0" d="M29539.87 3202.49l552.31 0c27.53,0 49.98,-22.45 49.98,-49.98l0 -1693.75c0,-27.53 22.45,-49.98 49.98,-49.98l923.93 0c27.53,0 49.98,-22.45 49.98,-49.98l0 -484.05c0,-27.53 -22.45,-49.98 -49.98,-49.98l-2394.8 0c-14.9,0 -27.73,5.81 -37.56,17l-425.02 484.05c-13.24,15.08 -16.25,35.29 -7.98,53.58 8.29,18.29 25.45,29.37 45.53,29.37l1143.68 0c27.53,0 49.98,22.45 49.98,49.98l0 1693.75c0,27.53 22.45,49.98 49.98,49.98zm2036.41 0l548.51 0c27.53,0 49.98,-22.45 49.98,-49.98l0 -2277.75c0,-27.53 -22.45,-49.98 -49.98,-49.98l-548.51 0c-27.53,0 -49.98,22.45 -49.98,49.98l0 2277.75c0,27.53 22.45,49.98 49.98,49.98z"/>
   </g>
  </g>
 </g>
</svg>
