<?xml version="1.0" encoding="UTF-8"?>
<!DOCTYPE svg PUBLIC "-//W3C//DTD SVG 1.1//EN" "http://www.w3.org/Graphics/SVG/1.1/DTD/svg11.dtd">
<!-- Creator: CorelDRAW -->
<svg xmlns="http://www.w3.org/2000/svg" xml:space="preserve" width="46.2992mm" height="40.2918mm" version="1.1" style="shape-rendering:geometricPrecision; text-rendering:geometricPrecision; image-rendering:optimizeQuality; fill-rule:evenodd; clip-rule:evenodd"
viewBox="0 0 665.61 579.25"
 xmlns:xlink="http://www.w3.org/1999/xlink"
 xmlns:xodm="http://www.corel.com/coreldraw/odm/2003">
 <defs>
  <style type="text/css">
   <![CDATA[
    .fil0 {fill:#3BD66F;fill-rule:nonzero}
   ]]>
  </style>
 </defs>
 <g id="Camada_x0020_1">
  <metadata id="CorelCorpID_0Corel-Layer"/>
  <g id="_2340525025744">
   <g>
    <path class="fil0" d="M397.03 0c-65.15,0 -119.16,47.23 -129.98,109.28 -2.23,8.56 -2.04,61.1 -2.05,61.17 0.02,9.43 5.86,68.69 -50.84,125.37 -56.68,56.7 -120.39,46.48 -120.39,46.48l0 0.21c-24.19,-0.74 -48.63,7.9 -67.12,26.36 -35.53,35.53 -35.5,93.16 0,128.66 35.52,35.52 93.12,35.54 128.66,0 18.46,-18.48 27.14,-42.89 26.37,-67.09l0.2 -0.06c0,0 -10.23,-63.69 46.46,-120.37 56.69,-56.7 114.86,-49.96 124.3,-49.93 0.06,-0.03 37.43,4.14 44.39,4.1 72.97,-0.41 132.1,-59.15 132.1,-132.1 0,-72.95 -59.14,-132.09 -132.1,-132.09z"/>
    <path class="fil0" d="M660.79 450.26c-13.78,-38.96 -53.47,-61.28 -92.88,-54.63 -5.6,0.47 -36.99,11.72 -37.02,11.72 -5.65,2 -39.86,18.05 -85.77,-3.88 -45.9,-21.91 -53.29,-62.17 -53.29,-62.17l-0.12 0.04c-4.67,-14.63 -15.01,-27.42 -29.98,-34.57 -28.76,-13.75 -63.23,-1.54 -76.95,27.23 -13.72,28.77 -1.54,63.21 27.23,76.96 14.98,7.13 31.4,7.15 45.71,1.58l0.08 0.1c0,0 35.94,-19.59 81.83,2.33 45.92,21.9 54.21,58.12 56.18,63.78 0.03,0.03 5.46,23.27 6.95,27.44 15.7,43.53 63.33,66.48 106.98,51.04 43.63,-15.43 66.5,-63.33 51.05,-106.97z"/>
    <path class="fil0" d="M344.83 521.53c0,31.87 -25.84,57.72 -57.72,57.72 -31.88,0 -57.72,-25.85 -57.72,-57.72 0,-31.89 25.84,-57.73 57.72,-57.73 31.88,0 57.72,25.84 57.72,57.73z"/>
   </g>
  </g>
 </g>
</svg>
