<?xml version="1.0" encoding="UTF-8"?>
<!DOCTYPE svg PUBLIC "-//W3C//DTD SVG 1.1//EN" "http://www.w3.org/Graphics/SVG/1.1/DTD/svg11.dtd">
<!-- Creator: CorelDRAW -->
<svg xmlns="http://www.w3.org/2000/svg" xml:space="preserve" width="263.784mm" height="127.608mm" version="1.1" style="shape-rendering:geometricPrecision; text-rendering:geometricPrecision; image-rendering:optimizeQuality; fill-rule:evenodd; clip-rule:evenodd"
viewBox="0 0 26363.23 12753.45"
 xmlns:xlink="http://www.w3.org/1999/xlink"
 xmlns:xodm="http://www.corel.com/coreldraw/odm/2003">
 <defs>
  <style type="text/css">
   <![CDATA[
    .fil1 {fill:#FEFEFE;fill-rule:nonzero}
    .fil0 {fill:#3BD66F;fill-rule:nonzero}
   ]]>
  </style>
 </defs>
 <g id="Camada_x0020_1">
  <metadata id="CorelCorpID_0Corel-Layer"/>
  <g id="_2340355087760">
   <g>
    <g>
     <path class="fil0" d="M14081.4 0c-912.77,0 -1669.62,661.81 -1821.24,1531.22 -31.22,119.94 -28.52,856.15 -28.76,857.14 0.24,132.09 82.15,962.46 -712.35,1756.64 -794.19,794.51 -1686.82,651.21 -1686.82,651.21l0 2.89c-338.94,-10.37 -681.34,110.67 -940.47,369.41 -497.82,497.78 -497.43,1305.25 0,1802.63 497.66,497.7 1304.69,497.98 1802.67,0 258.7,-258.97 380.3,-600.97 369.53,-939.96l2.73 -0.79c0,0 -143.31,-892.35 651.05,-1686.54 794.22,-794.46 1609.29,-700.04 1741.67,-699.64 0.84,-0.4 524.45,57.99 622,57.44 1022.39,-5.71 1850.96,-828.73 1850.96,-1850.84 0,-1022.1 -828.57,-1850.79 -1850.96,-1850.79z"/>
     <path class="fil0" d="M17777.06 6308.76c-193.1,-545.87 -749.19,-858.64 -1301.32,-765.43 -78.43,6.58 -518.26,164.19 -518.66,164.19 -79.14,28.08 -558.43,252.87 -1201.82,-54.35 -643.16,-307.02 -746.62,-871.15 -746.62,-871.15l-1.63 0.55c-65.35,-204.98 -210.29,-384.14 -420.03,-484.31 -402.96,-192.67 -885.89,-21.55 -1078.2,381.56 -192.23,403.12 -21.55,885.61 381.57,1078.32 209.9,99.9 439.96,100.17 640.42,22.11l1.07 1.34c0,0 503.57,-274.53 1146.57,32.64 643.43,306.9 759.57,814.39 787.1,893.7 0.44,0.39 76.45,325.99 97.32,384.42 219.95,609.96 887.39,931.48 1498.9,715.17 611.35,-216.28 931.76,-887.4 715.33,-1498.75z"/>
     <path class="fil0" d="M13350.11 7307.38c0,446.48 -362.03,808.68 -808.68,808.68 -446.64,0 -808.68,-362.2 -808.68,-808.68 0,-446.77 362.04,-808.8 808.68,-808.8 446.65,0 808.68,362.03 808.68,808.8z"/>
    </g>
   </g>
   <g>
    <path class="fil1" d="M118.22 12753.45l1982.43 0c367.81,0 633.24,-219.92 633.24,-546.02l0 -299.56c0,-341.26 -200.96,-508.1 -496.72,-542.23l-1512.93 -166.83c-68.25,-7.59 -79.62,-60.68 -79.62,-83.42l0 -53.09c0,-60.67 41.71,-102.37 113.75,-102.37l1781.46 0c27.52,0 49.97,-22.45 49.97,-49.97l0 -484c0,-27.52 -22.45,-49.97 -49.97,-49.97l-1906.6 0c-401.93,0 -633.23,193.39 -633.23,557.4l0 307.13c0,345.05 212.34,489.15 534.64,530.85l1478.8 159.26c45.5,7.58 72.05,45.49 72.05,87.21l0 37.92c0,60.67 -34.13,109.96 -106.17,109.96l-1861.1 0c-27.52,0 -49.97,22.45 -49.97,49.97l0 487.79c0,27.52 22.45,49.97 49.97,49.97zm3063.78 0l548.45 0c27.52,0 49.97,-22.45 49.97,-49.97l0 -2277.52c0,-27.52 -22.45,-49.97 -49.97,-49.97l-548.45 0c-27.52,0 -49.97,22.45 -49.97,49.97l0 2277.52c0,27.52 22.45,49.97 49.97,49.97zm1114.79 0l1982.43 0c367.81,0 633.24,-219.92 633.24,-546.02l0 -299.56c0,-341.26 -200.96,-508.1 -496.72,-542.23l-1512.93 -166.83c-68.25,-7.59 -79.62,-60.68 -79.62,-83.42l0 -53.09c0,-60.67 41.71,-102.37 113.75,-102.37l1781.46 0c27.52,0 49.97,-22.45 49.97,-49.97l0 -484c0,-27.52 -22.45,-49.97 -49.97,-49.97l-1906.6 0c-401.93,0 -633.23,193.39 -633.23,557.4l0 307.13c0,345.05 212.34,489.15 534.64,530.85l1478.8 159.26c45.5,7.58 72.05,45.49 72.05,87.21l0 37.92c0,60.67 -34.13,109.96 -106.17,109.96l-1861.1 0c-27.52,0 -49.97,22.45 -49.97,49.97l0 487.79c0,27.52 22.45,49.97 49.97,49.97zm3746.29 0l552.25 0c27.52,0 49.97,-22.45 49.97,-49.97l0 -1693.57c0,-27.52 22.45,-49.97 49.97,-49.97l923.84 0c27.52,0 49.97,-22.45 49.97,-49.97l0 -484c0,-27.52 -22.45,-49.97 -49.97,-49.97l-2580.85 0c-27.52,0 -49.97,22.45 -49.97,49.97l0 484c0,27.52 22.45,49.97 49.97,49.97l904.88 0c27.52,0 49.97,22.45 49.97,49.97l0 1693.57c0,27.52 22.45,49.97 49.97,49.97zm2017.24 0l2478.48 0c27.52,0 49.97,-22.45 49.97,-49.97l0 -487.79c0,-27.52 -22.45,-49.97 -49.97,-49.97l-1826.3 0c-27.52,0 -49.97,-22.45 -49.97,-49.97l0 -222.36c0,-27.52 22.45,-49.97 49.97,-49.97l1602.58 0c27.52,0 49.97,-22.45 49.97,-49.97l0 -487.78c0,-27.52 -22.45,-49.97 -49.97,-49.97l-1602.58 0c-27.52,0 -49.97,-22.45 -49.97,-49.97l0 -195.82c0,-27.52 22.45,-49.97 49.97,-49.97l1826.3 0c27.52,0 49.97,-22.45 49.97,-49.97l0 -484c0,-27.52 -22.45,-49.97 -49.97,-49.97l-2478.48 0c-27.52,0 -49.97,22.45 -49.97,49.97l0 2277.52c0,27.52 22.45,49.97 49.97,49.97zm5577.3 -2360.58l-982.72 1112.32c-9.83,11.13 -22.64,16.9 -37.49,16.89 -14.86,-0.02 -27.65,-5.81 -37.47,-16.96l-979.01 -1112.18c-9.83,-11.16 -22.64,-16.95 -37.51,-16.95l-583.42 0c-27.52,0 -49.97,22.45 -49.97,49.97l0 2277.52c0,27.52 22.45,49.97 49.97,49.97l537.08 0c27.52,0 49.97,-22.45 49.97,-49.97l0 -1266.26c0,-21.19 12.48,-39.25 32.3,-46.74 19.83,-7.49 41.14,-2.2 55.15,13.7l773.53 877.33c9.82,11.14 22.62,16.92 37.48,16.92l311.11 0c14.98,0 27.86,-5.87 37.7,-17.17l761.92 -875.54c13.95,-16.03 35.31,-21.45 55.21,-14 19.9,7.45 32.46,25.56 32.46,46.8l0 1264.95c0,27.52 22.45,49.97 49.97,49.97l533.28 0c27.52,0 49.97,-22.45 49.97,-49.97l0 -2277.52c0,-27.52 -22.45,-49.97 -49.97,-49.97l-572.1 0c-14.84,0 -27.62,5.76 -37.45,16.88zm3438.59 2360.58l625.44 0c18.11,0 33.67,-8.84 42.94,-24.41 9.26,-15.56 9.62,-33.46 0.99,-49.38l-1235.01 -2277.52c-8.96,-16.54 -25.12,-26.15 -43.93,-26.15l-581.36 0c-18.79,0 -34.92,9.58 -43.89,26.09l-1238.65 2277.52c-8.67,15.92 -8.33,33.83 0.94,49.41 9.26,15.58 24.83,24.44 42.96,24.44l621.53 0c18.95,0 35.21,-9.76 44.11,-26.49l191.72 -360.31c8.9,-16.73 25.16,-26.49 44.11,-26.49l1248.15 0c18.95,0 35.21,9.76 44.11,26.49l191.72 360.31c8.9,16.73 25.16,26.49 44.11,26.49zm-1203.69 -1074.71l257.32 -477.48c8.96,-16.64 25.21,-26.31 44.1,-26.26 18.9,0.04 35.09,9.78 43.98,26.46l254.46 477.48c8.5,15.93 8.04,33.74 -1.25,49.22 -9.28,15.47 -24.8,24.26 -42.85,24.26l-511.8 0c-18.09,0 -33.63,-8.82 -42.91,-24.36 -9.27,-15.53 -9.66,-33.39 -1.08,-49.32zm2145.04 1074.71l1982.43 0c367.81,0 633.24,-219.92 633.24,-546.02l0 -299.56c0,-341.26 -200.96,-508.1 -496.72,-542.23l-1512.93 -166.83c-68.25,-7.59 -79.62,-60.68 -79.62,-83.42l0 -53.09c0,-60.67 41.71,-102.37 113.75,-102.37l1224.39 0c14.9,0 27.72,-5.81 37.56,-17l424.98 -484c13.24,-15.08 16.25,-35.29 7.98,-53.58 -8.29,-18.29 -25.45,-29.36 -45.52,-29.36l-1774.52 0c-401.93,0 -633.23,193.39 -633.23,557.4l0 307.13c0,345.05 212.34,489.15 534.64,530.85l1478.8 159.26c45.5,7.58 72.05,45.49 72.05,87.21l0 37.92c0,60.67 -34.13,109.96 -106.17,109.96l-1861.1 0c-27.52,0 -49.97,22.45 -49.97,49.97l0 487.79c0,27.52 22.45,49.97 49.97,49.97z"/>
    <path class="fil0" d="M23728.61 12753.45l552.25 0c27.52,0 49.97,-22.45 49.97,-49.97l0 -1693.57c0,-27.52 22.45,-49.97 49.97,-49.97l923.84 0c27.52,0 49.97,-22.45 49.97,-49.97l0 -484c0,-27.52 -22.45,-49.97 -49.97,-49.97l-2394.55 0c-14.9,0 -27.72,5.81 -37.56,17l-424.98 484c-13.24,15.08 -16.25,35.29 -7.98,53.58 8.29,18.29 25.45,29.36 45.52,29.36l1143.56 0c27.52,0 49.97,22.45 49.97,49.97l0 1693.57c0,27.52 22.45,49.97 49.97,49.97zm2036.2 0l548.45 0c27.52,0 49.97,-22.45 49.97,-49.97l0 -2277.52c0,-27.52 -22.45,-49.97 -49.97,-49.97l-548.45 0c-27.52,0 -49.97,22.45 -49.97,49.97l0 2277.52c0,27.52 22.45,49.97 49.97,49.97z"/>
   </g>
  </g>
 </g>
</svg>
